HIERARCHY
ROOT Hips
{
	OFFSET 0.00000 0.00000 0.00000
	CHANNELS 6 Xposition Yposition Zposition Zrotation Yrotation Xrotation 
	JOINT LHipJoint
	{
		OFFSET 0 0 0
		CHANNELS 3 Zrotation Yrotation Xrotation
		JOINT LeftHip
		{
			OFFSET 1.85742 -1.74412 1.01653
			CHANNELS 3 Zrotation Yrotation Xrotation
			JOINT LeftKnee
			{
				OFFSET 2.54803 -7.00067 0.00000
				CHANNELS 3 Zrotation Yrotation Xrotation
				JOINT LeftAnkle
				{
					OFFSET 2.51202 -6.90173 0.00000
					CHANNELS 3 Zrotation Yrotation Xrotation
					JOINT LeftToe
					{
						OFFSET 0.17547 -0.48209 1.64281
						CHANNELS 3 Zrotation Yrotation Xrotation
						End Site
						{
							OFFSET 0.00000 -0.00000 0.86587
						}
					}
				}
			}
		}
	}
	JOINT RHipJoint
	{
		OFFSET 0 0 0
		CHANNELS 3 Zrotation Yrotation Xrotation
		JOINT RightHip
		{
			OFFSET -1.95533 -1.74413 1.01654
			CHANNELS 3 Zrotation Yrotation Xrotation
			JOINT RightKnee
			{
				OFFSET -2.49465 -6.85400 0.00000
				CHANNELS 3 Zrotation Yrotation Xrotation
				JOINT RightAnkle
				{
					OFFSET -2.54783 -7.00010 0.00000
					CHANNELS 3 Zrotation Yrotation Xrotation
					JOINT RightToe
					{
						OFFSET -0.18513 -0.50864 1.69288
						CHANNELS 3 Zrotation Yrotation Xrotation
						End Site
						{
							OFFSET -0.00000 -0.00000 0.89242
						}
					}
				}
			}
		}
	}
	JOINT lowerback
	{
		OFFSET 0 0 0
		CHANNELS 3 Zrotation Yrotation Xrotation
		JOINT Chest
		{
			OFFSET 0.02173 2.16290 -0.15998
			CHANNELS 3 Zrotation Yrotation Xrotation
			JOINT Chest2
			{
				OFFSET 0.00940 2.17323 -0.00467
				CHANNELS 3 Zrotation Yrotation Xrotation
				JOINT lowerneck
				{
					OFFSET 0 0 0
					CHANNELS 3 Zrotation Yrotation Xrotation
					JOINT Neck
					{
						OFFSET 0.01475 1.85823 0.31113
						CHANNELS 3 Zrotation Yrotation Xrotation
						JOINT Head
						{
							OFFSET 0.01902 1.88783 -0.37187
							CHANNELS 3 Zrotation Yrotation Xrotation
							End Site
							{
								OFFSET 0.00489 1.93211 -0.16169
							}
						}
					}
				}
				JOINT LeftCollar
				{
					OFFSET 0 0 0
					CHANNELS 3 Zrotation Yrotation Xrotation
					JOINT LeftShoulder
					{
						OFFSET 3.34199 1.32384 -0.07862
CHANNELS 3 Zrotation Xrotation Yrotation
						JOINT LeftElbow
						{
OFFSET 0 -5.279500 0.000000
CHANNELS 3 Zrotation Xrotation Yrotation
							JOINT LeftWrist
							{
OFFSET 0 -3.535040 0.000000
CHANNELS 3 Zrotation Xrotation Yrotation
								JOINT lhand
								{
									OFFSET 0 0 0
CHANNELS 3 Zrotation Xrotation Yrotation
									JOINT LFingers
									{
OFFSET 0 -0.667950 0.000000
CHANNELS 3 Zrotation Xrotation Yrotation
										End Site
										{
OFFSET 0 -0.538520 0.000000
										}
									}
								}
								JOINT LThumb
								{
OFFSET 0 0.000000 0.000000
CHANNELS 3 Zrotation Xrotation Yrotation
									End Site
									{
OFFSET 0 -0.546740 0.546740
									}
								}
							}
						}
					}
				}
				JOINT RightCollar
				{
					OFFSET 0 0 0
					CHANNELS 3 Zrotation Yrotation Xrotation
					JOINT RightShoulder
					{
						OFFSET -3.16149 1.45719 -0.50507
CHANNELS 3 Zrotation Xrotation Yrotation
						JOINT RightElbow
						{
OFFSET 0 -5.250350 0.000000
CHANNELS 3 Zrotation Xrotation Yrotation
							JOINT RightWrist
							{
OFFSET 0 -3.588840 0.000000
CHANNELS 3 Zrotation Xrotation Yrotation
								JOINT rhand
								{
									OFFSET 0 0 0
CHANNELS 3 Zrotation Xrotation Yrotation
									JOINT RFingers
									{
OFFSET 0 -0.779240 0.000000
CHANNELS 3 Zrotation Xrotation Yrotation
										End Site
										{
OFFSET 0 -0.628240 0.000000
										}
									}
								}
								JOINT RThumb
								{
OFFSET 0 0.000000 0.000000
CHANNELS 3 Zrotation Xrotation Yrotation
									End Site
									{
OFFSET 0 -0.637830 0.637830
									}
								}
							}
						}
					}
				}
			}
		}
	}
}
MOTION
Frames: 8
Frame Time: 0.008333333333333333
4.798081 17.247827 -10.712799 -10.605129 -11.743592 39.116230 0.000000 0.000000 0.000000 11.569894 -10.849218 -59.415628 4.264586 12.504348 37.540413 0.555625 -0.593767 -13.889569 2.790575 -10.348136 -30.111628 0.000000 0.000000 0.000000 34.253933 11.063736 -53.302391 -0.704766 -5.365892 14.955146 0.214208 8.461368 0.771174 -1.613975 8.010943 -22.747337 -6.117705 -0.908819 34.173316 -8.359230 -3.786942 12.654743 -4.290047 -1.780052 -3.673745 -13.580807 -9.788087 -13.051102 5.726453 -11.878702 30.424208 2.623536 -5.966777 13.718346 0.000000 0.000000 0.000000 -3.069400 -48.542037 -91.259678 85.080509 -59.908313 55.740944 25.671133 -74.659941 -48.619525 0.000000 0.000000 0.000000 -7.125000 0.000000 0.000000 6.844464 -9.027936 174.272242 0.000000 0.000000 0.000000 -39.541556 0.237678 14.763175 -147.863378 -42.655818 -107.166707 -13.061839 6.489605 -25.288938 0.000000 0.000000 0.000000 7.125000 0.000000 0.000000 10.060009 4.443770 9.399451
4.807587 17.245865 -10.719777 -10.605049 -11.829053 39.079444 0.000000 0.000000 0.000000 11.391477 -10.683398 -59.481514 4.283368 12.528206 37.627221 0.551503 -0.687783 -13.809486 2.792117 -10.350707 -30.119889 0.000000 0.000000 0.000000 34.207740 11.067965 -53.351527 -0.714705 -5.402679 15.060699 0.217225 8.515996 0.790506 -1.591659 7.957915 -22.586410 -6.169246 -0.849314 34.033780 -8.169410 -3.712839 12.532748 -4.086407 -1.751913 -3.730930 -13.535053 -9.864247 -13.153039 5.934456 -12.064183 30.423213 2.659044 -6.016911 13.773740 0.000000 0.000000 0.000000 -3.525648 -47.975125 -91.305191 86.165970 -59.944395 56.680316 27.130811 -74.072516 -49.204569 0.000000 0.000000 0.000000 -7.125000 0.000000 0.000000 6.351794 -8.035747 174.563860 0.000000 0.000000 0.000000 -39.573879 -0.367533 15.355795 -147.147776 -43.216138 -106.679235 -13.296752 6.845211 -25.792234 0.000000 0.000000 0.000000 7.125000 0.000000 0.000000 9.945138 3.911439 9.389503
4.817847 17.247457 -10.729944 -10.464375 -11.972639 38.944297 0.000000 0.000000 0.000000 11.244592 -10.857110 -59.291129 4.260669 12.499382 37.522395 0.548441 -0.548031 -13.812519 2.787376 -10.342662 -30.093542 0.000000 0.000000 0.000000 33.958027 11.053160 -53.363353 -0.725251 -5.441628 15.172555 0.215495 8.480901 0.791827 -1.603747 7.986841 -22.674055 -6.117532 -0.783503 33.943994 -8.127597 -3.614201 12.459720 -4.101165 -1.705060 -3.774838 -13.487521 -9.917953 -13.418533 6.288157 -12.247750 30.448261 2.745817 -6.044473 13.886966 0.000000 0.000000 0.000000 -4.019281 -47.625964 -91.696382 85.810454 -59.933554 56.372575 26.825639 -75.131514 -49.334861 0.000000 0.000000 0.000000 -7.125000 0.000000 0.000000 6.511067 -8.007713 174.422238 0.000000 0.000000 0.000000 -39.179073 -0.752193 15.424240 -147.082920 -43.266203 -106.634813 -12.450270 7.105007 -24.231248 0.000000 0.000000 0.000000 7.125000 0.000000 0.000000 10.383059 5.573152 9.485718
4.828086 17.250957 -10.743893 -10.297368 -12.138635 38.736320 0.000000 0.000000 0.000000 10.892005 -10.859272 -59.074922 4.228885 12.458878 37.375382 0.540300 -0.479495 -13.729997 2.765751 -10.305711 -29.972710 0.000000 0.000000 0.000000 33.718045 10.975317 -53.314802 -0.732007 -5.466093 15.242943 0.216178 8.491988 0.802948 -1.610644 8.003039 -22.723375 -6.359630 -0.690053 33.826087 -7.948569 -3.549669 12.424791 -3.809082 -1.687145 -3.730931 -13.451021 -9.958014 -13.850247 6.230456 -12.253597 30.530823 2.697245 -6.038613 14.009235 0.000000 0.000000 0.000000 -4.247657 -47.316423 -91.292008 87.066073 -59.967378 57.459441 27.568817 -75.231837 -49.195415 0.000000 0.000000 0.000000 -7.125000 0.000000 0.000000 6.164507 -7.905076 174.709857 0.000000 0.000000 0.000000 -39.736070 -1.913490 16.172658 -146.357501 -43.817907 -106.135009 -11.554578 7.711874 -22.392903 0.000000 0.000000 0.000000 7.125000 0.000000 0.000000 10.872889 7.505421 9.537949
4.842604 17.254304 -10.759029 -10.099000 -12.158693 38.526007 0.000000 0.000000 0.000000 10.544694 -10.921728 -58.969780 4.205937 12.429524 37.269000 0.527896 -0.527630 -13.554116 2.940612 -10.598181 -30.936505 0.000000 0.000000 0.000000 33.500044 10.787606 -53.354687 -0.740895 -5.498611 15.336360 0.216410 8.497236 0.799350 -1.587953 7.949167 -22.559765 -6.328866 -0.542960 33.882581 -7.748752 -3.361780 12.311301 -3.673117 -1.599466 -3.854338 -13.240959 -10.112811 -14.282009 6.134855 -12.461309 30.709714 2.567057 -6.102893 14.181387 0.000000 0.000000 0.000000 -5.356336 -47.024101 -91.634679 88.777788 -59.994295 58.941526 33.058939 -71.198125 -49.814622 0.000000 0.000000 0.000000 -7.125000 0.000000 0.000000 4.082698 -5.520310 176.319482 0.000000 0.000000 0.000000 -40.068814 -2.861689 16.804273 -145.970926 -44.106222 -105.866696 -12.195176 4.211746 -18.872599 0.000000 0.000000 0.000000 7.125000 0.000000 0.000000 10.396383 10.946286 8.374928
4.849393 17.257904 -10.780445 -10.101973 -12.124659 38.341192 0.000000 0.000000 0.000000 10.599584 -11.060880 -58.769653 4.180845 12.397258 37.152012 0.524632 -0.493942 -13.522365 2.765469 -10.305417 -29.971585 0.000000 0.000000 0.000000 33.323102 10.911049 -53.084694 -0.727332 -5.449216 15.194435 0.198699 8.120398 0.861710 -1.652353 8.100955 -23.021249 -6.137822 -0.424800 33.824069 -7.602484 -3.147205 12.289573 -3.689267 -1.498621 -3.853375 -12.649246 -9.936091 -14.686917 6.012057 -12.289360 30.532471 2.440569 -5.969792 14.104294 0.000000 0.000000 0.000000 -5.280059 -46.926669 -91.422884 88.848830 -59.994970 59.003042 34.626050 -71.126660 -49.552978 0.000000 0.000000 0.000000 -7.125000 0.000000 0.000000 3.381614 -5.209801 176.933996 0.000000 0.000000 0.000000 -40.313834 -2.675198 16.754255 -146.069491 -44.033161 -105.935310 -12.667551 2.619813 -14.644283 0.000000 0.000000 0.000000 7.125000 0.000000 0.000000 10.075309 15.142733 7.207542
4.854526 17.252090 -10.808586 -9.972994 -12.211419 38.376912 0.000000 0.000000 0.000000 10.424682 -11.014318 -58.939575 4.167352 12.379829 37.089139 0.522171 -0.443443 -13.506100 2.791182 -10.349033 -30.114604 0.000000 0.000000 0.000000 33.076652 11.046219 -53.328774 -0.740468 -5.497006 15.331654 0.196561 8.056256 0.944930 -1.584811 7.941568 -22.536782 -6.230784 -0.454949 33.704535 -7.572231 -3.202547 12.215351 -3.590451 -1.527091 -3.882461 -12.286069 -9.494716 -15.355656 6.001719 -11.704028 30.589774 2.465988 -5.667794 14.170209 0.000000 0.000000 0.000000 -5.370551 -46.991631 -91.293244 89.158637 -59.997303 59.271351 35.886791 -70.644599 -50.587932 0.000000 0.000000 0.000000 -7.125000 0.000000 0.000000 3.226222 -3.810479 176.990590 0.000000 0.000000 0.000000 -41.386746 -1.051950 15.984806 -145.974704 -44.103441 -105.869381 -15.304432 8.677537 -18.249121 0.000000 0.000000 0.000000 7.125000 0.000000 0.000000 8.357516 11.260593 6.637621
4.867757 17.248696 -10.831889 -9.982547 -12.197629 38.312827 0.000000 0.000000 0.000000 10.538687 -11.222468 -58.883032 4.161052 12.371669 37.059932 0.521421 -0.295465 -13.543665 2.880979 -10.499832 -30.610960 0.000000 0.000000 0.000000 33.015812 11.085487 -53.300842 -0.735426 -5.478630 15.278939 0.193266 7.980377 0.973296 -1.675836 8.155393 -23.187216 -6.173510 -0.561914 33.718664 -7.660712 -3.325936 12.189457 -3.671743 -1.580497 -3.931540 -12.151240 -9.332131 -15.614525 5.905446 -11.460837 30.702004 2.443396 -5.556260 14.228274 0.000000 0.000000 0.000000 -5.554352 -47.116303 -90.975605 88.536211 -59.991881 58.732360 34.772932 -68.122950 -54.157417 0.000000 0.000000 0.000000 -7.125000 0.000000 0.000000 4.814021 -1.014134 175.254541 0.000000 0.000000 0.000000 -41.904172 -0.423546 14.242490 -146.550878 -43.672417 -106.268810 -14.157699 6.797130 -23.768070 0.000000 0.000000 0.000000 7.125000 0.000000 0.000000 9.310455 5.823499 8.433226
